<svg width="40" height="40" viewBox="0 0 40 40" fill="none" xmlns="http://www.w3.org/2000/svg">
<path d="M20.465 2.59063C20.1665 2.47101 19.8335 2.47101 19.535 2.59063L4.615 8.55813L10.625 10.9606L26.01 4.80813L20.465 2.59063ZM29.375 6.15563L13.99 12.3081L20 14.7106L35.385 8.55813L29.375 6.15563ZM37.5 10.4056L21.25 16.9056V36.7106L37.5 30.2106V10.4056ZM18.75 36.7131V16.9031L2.5 10.4056V30.2131L18.75 36.7131ZM18.6075 0.268126C19.5014 -0.0893755 20.4986 -0.0893755 21.3925 0.268126L39.215 7.39813C39.4467 7.49099 39.6453 7.65111 39.7852 7.85785C39.9251 8.06459 39.9999 8.30849 40 8.55813V30.2131C39.9997 30.7127 39.8497 31.2007 39.5694 31.6142C39.2891 32.0277 38.8914 32.3478 38.4275 32.5331L20.465 39.7181C20.1665 39.8377 19.8335 39.8377 19.535 39.7181L1.575 32.5331C1.11063 32.3482 0.712356 32.0283 0.431605 31.6147C0.150854 31.2012 0.000515823 30.713 0 30.2131L0 8.55813C5.80999e-05 8.30849 0.0748594 8.06459 0.214768 7.85785C0.354676 7.65111 0.553282 7.49099 0.785 7.39813L18.6075 0.268126Z" fill="#1E1E1E"/>
</svg>
