<svg width="141" height="22" viewBox="0 0 141 22" fill="none" xmlns="http://www.w3.org/2000/svg">
<path d="M13.16 11.944C13.664 12.064 14.096 12.352 14.408 12.76C14.696 13.144 14.888 13.624 14.888 14.152V19.504C13.808 19.936 12.464 20.44 11 20.44C10.76 20.44 10.52 20.416 10.28 20.392C10.232 20.392 3.584 19.72 3.584 10.648C3.584 5.128 6.584 0.639999 10.304 0.639999C11.96 0.639999 13.232 1.384 14.168 2.416C15.152 3.496 15.8 4.864 15.992 6.328C16.016 6.592 16.04 6.856 16.04 7.12C16.04 7.816 15.92 8.56 15.56 9.256C15.56 9.256 18.392 9.04 18.392 5.656C18.392 5.656 18.32 3.928 16.952 2.68C15.8 1.648 13.76 0.352 10.832 0.207999C10.664 0.207999 10.496 0.183999 10.328 0.183999C5.12 0.183999 0.704 4.12 0.152 9.472C0.104 9.856 0.08 10.264 0.08 10.648C0.08 16.408 4.664 21.088 10.304 21.088C11.288 21.088 12.272 20.944 13.16 20.68C13.928 20.44 14.696 20.344 15.488 20.344C16.064 20.344 16.664 20.392 17.264 20.536L18.392 20.8V14.152C18.392 13.12 19.088 12.184 20.12 11.944H13.16ZM34.6132 19.984C34.3012 19.6 34.1092 19.12 34.1092 18.592V16.36C34.1092 15.136 33.6292 14.032 32.8132 13.24C32.3092 12.712 31.6612 12.328 30.9172 12.112C30.7492 12.064 30.5812 12.04 30.4132 11.992C32.2852 11.416 35.1652 10 35.1652 6.376C35.1652 4.72 34.5172 3.208 33.4132 2.128C32.3332 1.048 30.8212 0.375999 29.1652 0.375999H20.5972C21.1012 0.495999 21.5332 0.784 21.8452 1.192C22.1572 1.576 22.3252 2.08 22.3252 2.584V18.592C22.3252 19.624 21.6052 20.56 20.5972 20.8H27.5572C27.0532 20.68 26.6212 20.392 26.3092 19.984C26.0212 19.6 25.8292 19.12 25.8292 18.592V16.576C25.8292 15.448 26.2612 14.416 26.9572 13.624C27.3172 13.24 27.7972 13.024 28.3012 13.024C28.7332 13.024 29.1892 13.192 29.5252 13.528C30.0772 14.104 30.6052 14.992 30.6052 16.36V18.088C30.6052 19.576 31.8292 20.8 33.3412 20.8H35.8372C35.3332 20.68 34.9012 20.392 34.6132 19.984ZM25.8292 0.808H26.9092C29.9812 0.808 31.6612 3.304 31.6612 6.376C31.6612 7.912 31.1572 9.424 30.0532 10.312C27.7012 12.184 26.7172 12.808 25.8292 14.488V0.808ZM45.1558 0.808C46.9078 0.808 48.7078 2.104 49.4998 3.808L48.6358 0.375999H36.3238C36.8278 0.495999 37.2598 0.784 37.5718 1.192C37.8838 1.576 38.0518 2.08 38.0518 2.584V18.592C38.0518 19.648 37.3318 20.56 36.3238 20.8H48.6358L49.4998 17.368C48.7078 19.096 46.9078 20.368 45.1558 20.368H41.5558V15.904C41.5558 15.016 41.9638 14.176 42.6838 13.672C43.3798 13.144 44.1478 12.76 44.8198 12.52C45.0358 12.448 45.2758 12.4 45.4918 12.4C46.3558 12.4 47.1478 13 47.3398 13.888V9.712C47.0998 10.768 46.3078 11.584 45.2758 11.896C44.1718 12.232 42.7318 12.88 41.5558 14.056V0.808H45.1558ZM58.8198 0.808C60.5718 0.808 62.3718 2.104 63.1638 3.808L62.2998 0.375999H49.9878C50.4918 0.495999 50.9238 0.784 51.2358 1.192C51.5478 1.576 51.7158 2.08 51.7158 2.584V18.592C51.7158 19.648 50.9958 20.56 49.9878 20.8H62.2998L63.1638 17.368C62.3718 19.096 60.5718 20.368 58.8198 20.368H55.2198V15.904C55.2198 15.016 55.6278 14.176 56.3478 13.672C57.0438 13.144 57.8118 12.76 58.4838 12.52C58.6998 12.448 58.9398 12.4 59.1558 12.4C60.0198 12.4 60.8118 13 61.0038 13.888V9.712C60.7638 10.768 59.9718 11.584 58.9398 11.896C57.8358 12.232 56.3958 12.88 55.2198 14.056V0.808H58.8198ZM77.9319 2.296C77.9319 1.408 78.5079 0.639999 79.3479 0.375999H76.0599C76.8999 0.639999 77.4759 1.408 77.4759 2.296V18.52L68.2599 0.375999H63.6519C64.1559 0.519999 64.5399 0.879999 64.8039 1.312L64.8759 1.456C64.9959 1.72 65.0679 2.008 65.0679 2.296V18.88C65.0679 19.768 64.4919 20.536 63.6519 20.8H66.9159C66.0759 20.536 65.4999 19.768 65.4999 18.88V2.68L74.7159 20.8H79.3479C78.5079 20.536 77.9319 19.768 77.9319 18.88V2.296ZM93.7438 0.375999L89.1838 14.512L84.4078 0.375999H79.8238C80.2558 0.495999 80.6158 0.759999 80.8558 1.096C80.9518 1.216 81.0238 1.336 81.0718 1.48L81.2158 1.864C81.2398 2.008 81.2638 2.152 81.2638 2.296V18.88C81.2638 19.768 80.6878 20.536 79.8238 20.8H83.1118C82.6798 20.68 82.3438 20.416 82.0798 20.08C81.8398 19.744 81.6958 19.336 81.6958 18.88V3.352L87.4798 20.8L93.7438 1.816V18.592C93.7438 19.648 93.0478 20.56 92.0157 20.8H98.9758C98.4718 20.68 98.0398 20.392 97.7278 19.984C97.4398 19.6 97.2478 19.12 97.2478 18.592V2.584C97.2478 1.552 97.9678 0.639999 98.9758 0.375999H93.7438ZM99.4644 0.375999C100.496 0.639999 101.192 1.552 101.192 2.584V18.592C101.192 19.648 100.496 20.56 99.4644 20.8H106.424C105.416 20.56 104.696 19.648 104.696 18.592V2.584C104.696 1.552 105.416 0.639999 106.424 0.375999H99.4644ZM121.174 2.296C121.174 1.408 121.75 0.639999 122.59 0.375999H119.302C120.142 0.639999 120.718 1.408 120.718 2.296V18.52L111.502 0.375999H106.894C107.398 0.519999 107.782 0.879999 108.046 1.312L108.118 1.456C108.238 1.72 108.31 2.008 108.31 2.296V18.88C108.31 19.768 107.734 20.536 106.894 20.8H110.158C109.318 20.536 108.742 19.768 108.742 18.88V2.68L117.958 20.8H122.59C121.75 20.536 121.174 19.768 121.174 18.88V2.296ZM133.314 0.808C132.378 0.519999 131.394 0.375999 130.362 0.375999H123.066C123.594 0.495999 124.002 0.784 124.314 1.192C124.626 1.576 124.794 2.08 124.794 2.608V18.592C124.794 19.648 124.098 20.56 123.066 20.8H130.362C131.394 20.8 132.378 20.656 133.314 20.368C137.514 19.096 140.562 15.208 140.562 10.6C140.562 5.968 137.514 2.08 133.314 0.808ZM128.298 20.368V0.808H130.362C134.058 0.808 137.058 5.2 137.058 10.6C137.058 16 134.058 20.368 130.362 20.368H128.298Z" fill="#1E1E1E"/>
</svg>
